inDegrees=no
num_controls=7
num_derivatives=13
num_iterations=155
num_multipliers=7
num_parameters=0
num_slacks=7
num_states=26
objective=5.447363
objective_accelerations=0.397139
objective_balance=0.036438
objective_effort=0.181312
objective_height=4.719433
objective_ligament=0.113041
solver_duration=1745.670758
status=Solve_Succeeded
success=true
DataType=double
version=3
OpenSimVersion=4.4-2022-07-23-0e9fedc
endheader
time	/jointset/ground_pelvis/pelvis_tilt/value	/jointset/ground_pelvis/pelvis_tx/value	/jointset/ground_pelvis/pelvis_ty/value	/jointset/hip_l/hip_flexion_l/value	/jointset/hip_l/hip_adduction_l/value	/jointset/hip_l/hip_rotation_l/value	/jointset/back/lumbar_extension/value	/jointset/patellofemoral_l/patellar_flexion_l/value	/jointset/knee_l/knee_flexion_l/value	/jointset/knee_l/knee_adduction_l/value	/jointset/knee_l/knee_rotation_l/value	/jointset/ankle_l/ankle_angle_l/value	/jointset/subtalar_l/subtalar_angle_l/value	/jointset/ground_pelvis/pelvis_tilt/speed	/jointset/ground_pelvis/pelvis_tx/speed	/jointset/ground_pelvis/pelvis_ty/speed	/jointset/hip_l/hip_flexion_l/speed	/jointset/hip_l/hip_adduction_l/speed	/jointset/hip_l/hip_rotation_l/speed	/jointset/back/lumbar_extension/speed	/jointset/patellofemoral_l/patellar_flexion_l/speed	/jointset/knee_l/knee_flexion_l/speed	/jointset/knee_l/knee_adduction_l/speed	/jointset/knee_l/knee_rotation_l/speed	/jointset/ankle_l/ankle_angle_l/speed	/jointset/subtalar_l/subtalar_angle_l/speed	/forceset/tau_hip_flexion_l	/forceset/tau_hip_adduction_l	/forceset/tau_hip_rotation_l	/forceset/tau_knee_flexion_l	/forceset/tau_ankle_angle_l	/forceset/tau_subtalar_angle_l	/forceset/tau_lumbar_extension	lambda_cid13_p0	lambda_cid13_p1	lambda_cid13_p2	lambda_cid13_p3	lambda_cid13_p4	lambda_cid13_p5	lambda_cid14_p0	/jointset/ground_pelvis/pelvis_tilt/accel	/jointset/ground_pelvis/pelvis_tx/accel	/jointset/ground_pelvis/pelvis_ty/accel	/jointset/hip_l/hip_flexion_l/accel	/jointset/hip_l/hip_adduction_l/accel	/jointset/hip_l/hip_rotation_l/accel	/jointset/back/lumbar_extension/accel	/jointset/patellofemoral_l/patellar_flexion_l/accel	/jointset/knee_l/knee_flexion_l/accel	/jointset/knee_l/knee_adduction_l/accel	/jointset/knee_l/knee_rotation_l/accel	/jointset/ankle_l/ankle_angle_l/accel	/jointset/subtalar_l/subtalar_angle_l/accel	gamma_cid13_p0	gamma_cid13_p1	gamma_cid13_p2	gamma_cid13_p3	gamma_cid13_p4	gamma_cid13_p5	gamma_cid14_p0
1	-0.2643531075968131	0.0549067109338438	0.7032701690826698	1.111169794356333	-0.4979301044459259	-0.07042231647685201	-0.2617985138430097	1.165370711144487	1.165370711144829	-0.1605558660101368	-0.1745324036788362	0.4038345339133086	0.06966729267170824	-0.01600948823932591	0.009282546872052664	-9.986507174432822e-05	0.001490930301353874	-0.002000506496080631	-0.001627546699183598	8.196081067134983e-06	-0.0001183301688300513	-0.0001183301688302187	-0.001106622409354024	2.19574276869671e-07	0.01367677415943322	0.007252932471597654	-0.1657531080409453	0.06743641018551769	-0.008919863178055926	-0.294132146910353	-0.09838619767602745	0.03023940514158538	0.1730934537030965	-67.94391116486415	-4.355922292494038	3.921681128669557	13.56771788113465	-602.0297535075916	-67.10090437642515	-9.536271581129359	0.8221233769844724	-0.005720692745164028	1.165842552145536	-3.836849026795004	0.3478494328188872	-2.125295032297572	-0.01410297589700437	-4.249971083784444	-4.249971083784403	0.04910742730184335	-0.009491337684460494	-1.732244609961181	-0.7210930703593107	1.822102695225309e-09	1.174622037548636e-08	-7.682174613474046e-09	2.618679097426328e-09	-2.296513651734553e-10	1.973309096977871e-08	6.981565130639382e-10
1.01	-0.2644727972676587	0.05499922829469723	0.7033273252380094	1.110994018845637	-0.4979322441455304	-0.07054563334533526	-0.2617983980912357	1.165157448265793	1.165157448265865	-0.1605626661617003	-0.1745323928103256	0.4038849229282582	0.06970471062263985	-0.007930913459557314	0.009221683955080539	0.01152855318796085	-0.0366392893313358	0.001573903303219372	-0.02303163626528638	1.349559580774175e-05	-0.04253105125600296	-0.04253105125599804	-0.0002547774058831357	1.79747485616973e-06	-0.003599163730647837	0.0002325848742684988	-0.1656950905203421	0.06745383688767423	-0.008923621858305281	-0.2939923608812041	-0.09841020921951001	0.03024339388529527	0.1730397380883936	-67.94048103552484	-4.362897289722835	3.928095872335737	13.5066292015114	-601.8936196920569	-67.09712150931873	-9.545413673241461	0.8003540075857872	-0.00615469302658582	1.160958633588085	-3.800097499952326	0.3624352713361932	-2.147340393030331	0.007627610639528604	-4.236442526346596	-4.23644252634573	0.1030166445256449	0.004963403901562148	-1.725297399899134	-0.6922191705699341	-3.781365805020422e-09	1.471876168882069e-09	2.052924627084707e-08	2.99389121680222e-09	-6.865662176327954e-09	1.207618169035083e-08	-4.685319087515892e-09
1.02	-0.2645117752948927	0.05509115990601031	0.7035006890100857	1.110437143324928	-0.4978986000435649	-0.07088286600433769	-0.2617982731049192	1.16452015419521	1.164520154194988	-0.1605609891417286	-0.174532369952834	0.4037625467600331	0.06967198238436902	0.0001328404847363717	0.009165396963981338	0.02314165827563295	-0.07472907170187555	0.005156253816544473	-0.04441070480193501	1.004292975355255e-05	-0.08492456854969609	-0.08492456854968625	0.0005888119038247324	2.617374331012749e-06	-0.02087626247543474	-0.006776305369072319	-0.1656370729996837	0.06747126358984439	-0.008927380538762974	-0.2938525748520542	-0.09843422076299893	0.03024738262902611	0.1729860224737435	-67.9461125187909	-4.368968314884848	3.935145550703017	13.4752103570341	-601.8847542386507	-67.08971709181743	-9.572483683000442	0.8191592098894106	-0.004805507570528135	1.162779917738917	-3.828761574365025	0.3494375756238629	-2.120290826406786	-0.01585341205537424	-4.246130325088473	-4.246130325088472	0.04745628854920526	-0.009642937905436622	-1.732476780902281	-0.7188015995616613	-9.268031467594274e-09	-8.961006551804426e-09	4.803550012219729e-08	3.194635159494032e-09	-1.339201062878672e-08	3.895366335048799e-09	-9.879858279036437e-09
1.03	-0.2644702326354217	0.05518254199873147	0.7037900618626577	1.109499699568667	-0.4978290711426787	-0.07143368965443721	-0.2617982397765909	1.163459061884563	1.163459061884328	-0.1605509426279192	-0.1745323428221174	0.4034673663263426	0.06956925650743283	0.008168479085609729	0.00911078816804408	0.0347258091807196	-0.1127395728225487	0.008753443694224938	-0.0657435840530519	-5.709575929877806e-06	-0.1272865571034158	-0.1272865571034193	0.001418469803041484	2.853743952666239e-06	-0.03816268793698919	-0.01376284445521261	-0.1654018584534239	0.06743657268263439	-0.008946632104193599	-0.2935710697708278	-0.09831443376104657	0.03026490527056151	0.1727915110598976	-67.88948805207342	-4.398684657559122	3.953809378606417	13.40854909563565	-601.6130014680459	-67.1010145544832	-9.617482783636126	0.7946833060288541	-0.005822897316045242	1.155163195176543	-3.784179765187219	0.3654383173533937	-2.138231139818472	0.005213989404660776	-4.230129603196315	-4.230129603198228	0.1004131551922728	0.004878261906269141	-1.727156358269829	-0.6876820013129077	-1.47535052644776e-08	-1.939550701243053e-08	7.553455839157844e-08	3.393598814668658e-09	-1.991724007758533e-08	-4.2907950006193e-09	-1.507246954801556e-08
1.04	-0.2643485501657769	0.055273371137151	0.7041950623279358	1.108182753724348	-0.4977234546183077	-0.07219753103011868	-0.2617984339416717	1.161974570391853	1.16197457039159	-0.1605326610122269	-0.1745323090602067	0.4029992354521394	0.06939684485200148	0.01616080252018942	0.009054806103658738	0.04626718081690371	-0.1506294893139773	0.01237377851242995	-0.08701424991833759	-3.545571243235633e-05	-0.1696044049644417	-0.169604404964458	0.002235832285634322	3.943613984732047e-06	-0.05546635057805689	-0.020713461068262	-0.1651666439071338	0.06740188177545287	-0.00896588366982887	-0.2932895646895976	-0.09819464675908961	0.03028242791215002	0.1725969996460776	-67.84193454810647	-4.427458186732999	3.973059456342073	13.37160975279592	-601.4684421586184	-67.10886542525328	-9.680381352574136	0.8104961766305753	-0.005080161260076391	1.154224063958403	-3.804644648516126	0.3540665637286881	-2.107848149240643	-0.01865213821810798	-4.237302186549675	-4.237302186549583	0.04499720522436612	-0.009472237823537056	-1.735924216804841	-0.7116171049435497	-2.043493994973875e-08	-2.975601224411189e-08	1.021659738965807e-07	3.980230132962223e-09	-2.625028482696565e-08	-1.192173555731507e-08	-2.025489302552209e-08
